<svg xmlns="http://www.w3.org/2000/svg" xmlns:xlink="http://www.w3.org/1999/xlink" width="1280" zoomAndPan="magnify" viewBox="0 0 960 89.999999" height="120" preserveAspectRatio="xMidYMid meet" version="1.0"><defs><clipPath id="2dbe1c2abb"><path d="M 0 0 L 91.5 0 L 91.5 90 L 0 90 Z M 0 0 " clip-rule="nonzero"/></clipPath><clipPath id="b3f4dcfb5f"><path d="M 87.480469 0 L 178.980469 0 L 178.980469 90 L 87.480469 90 Z M 87.480469 0 " clip-rule="nonzero"/></clipPath><clipPath id="b28bd4c6cc"><path d="M 174.960938 0 L 266.460938 0 L 266.460938 90 L 174.960938 90 Z M 174.960938 0 " clip-rule="nonzero"/></clipPath><clipPath id="166cb29cac"><path d="M 261.03125 0 L 352.53125 0 L 352.53125 90 L 261.03125 90 Z M 261.03125 0 " clip-rule="nonzero"/></clipPath><clipPath id="58c809a56f"><path d="M 348.511719 0 L 440 0 L 440 90 L 348.511719 90 Z M 348.511719 0 " clip-rule="nonzero"/></clipPath><clipPath id="43a3b06219"><path d="M 436 0 L 527.492188 0 L 527.492188 90 L 436 90 Z M 436 0 " clip-rule="nonzero"/></clipPath><clipPath id="0c4a96ee71"><path d="M 522.769531 0 L 614.269531 0 L 614.269531 90 L 522.769531 90 Z M 522.769531 0 " clip-rule="nonzero"/></clipPath><clipPath id="51de94e87e"><path d="M 610.25 0 L 701.75 0 L 701.75 90 L 610.25 90 Z M 610.25 0 " clip-rule="nonzero"/></clipPath><clipPath id="c03835f375"><path d="M 697.730469 0 L 789.230469 0 L 789.230469 90 L 697.730469 90 Z M 697.730469 0 " clip-rule="nonzero"/></clipPath><clipPath id="3737fdf4d8"><path d="M 770.707031 0 L 862.207031 0 L 862.207031 90 L 770.707031 90 Z M 770.707031 0 " clip-rule="nonzero"/></clipPath><clipPath id="8fc164e7ef"><path d="M 858.1875 0 L 949.6875 0 L 949.6875 90 L 858.1875 90 Z M 858.1875 0 " clip-rule="nonzero"/></clipPath><clipPath id="321231efe7"><path d="M 945.667969 0 L 960 0 L 960 90 L 945.667969 90 Z M 945.667969 0 " clip-rule="nonzero"/></clipPath></defs><rect x="-96" width="1152" fill="#ffffff" y="-9" height="107.999999" fill-opacity="1"/><rect x="-96" width="1152" fill="#ffffff" y="-9" height="107.999999" fill-opacity="1"/><rect x="-96" width="1152" fill="#490a0a" y="-9" height="107.999999" fill-opacity="1"/><g clip-path="url(#2dbe1c2abb)"><path fill="#ff5c00" d="M 57.242188 7.621094 L 34.410156 7.621094 L 34.410156 0 L 57.242188 0 Z M 81.59375 0 L 58.765625 0 L 58.765625 7.621094 L 81.59375 7.621094 Z M 83.121094 0 L 83.121094 7.621094 L 91.484375 7.621094 L 91.484375 0 Z M 8.378906 0 L 0.015625 0 L 0.015625 7.621094 L 8.378906 7.621094 Z M 32.734375 0 L 9.90625 0 L 9.90625 7.621094 L 32.734375 7.621094 Z M 46.589844 16.789062 L 69.417969 16.789062 L 69.417969 9.148438 L 46.589844 9.148438 Z M 70.941406 16.789062 L 91.484375 16.789062 L 91.484375 9.148438 L 70.941406 9.148438 Z M 20.710938 9.148438 L 0.015625 9.148438 L 0.015625 16.769531 L 20.710938 16.769531 Z M 22.234375 16.789062 L 45.0625 16.789062 L 45.0625 9.148438 L 22.234375 9.148438 Z M 34.410156 25.9375 L 57.242188 25.9375 L 57.242188 18.296875 L 34.410156 18.296875 Z M 81.59375 18.296875 L 58.765625 18.296875 L 58.765625 25.917969 L 81.59375 25.917969 Z M 83.121094 25.9375 L 91.484375 25.9375 L 91.484375 18.296875 L 83.121094 18.296875 Z M 8.378906 18.296875 L 0.015625 18.296875 L 0.015625 25.917969 L 8.378906 25.917969 Z M 9.90625 25.9375 L 32.734375 25.9375 L 32.734375 18.296875 L 9.90625 18.296875 Z M 46.589844 35.085938 L 69.417969 35.085938 L 69.417969 27.464844 L 46.589844 27.464844 Z M 70.941406 35.085938 L 91.484375 35.085938 L 91.484375 27.464844 L 70.941406 27.464844 Z M 20.710938 27.464844 L 0.015625 27.464844 L 0.015625 35.085938 L 20.710938 35.085938 Z M 45.0625 27.464844 L 22.234375 27.464844 L 22.234375 35.085938 L 45.0625 35.085938 Z M 34.5625 44.234375 L 57.394531 44.234375 L 57.394531 36.613281 L 34.5625 36.613281 Z M 81.746094 36.613281 L 58.917969 36.613281 L 58.917969 44.234375 L 81.746094 44.234375 Z M 83.273438 44.234375 L 91.484375 44.234375 L 91.484375 36.613281 L 83.273438 36.613281 Z M 8.53125 36.613281 L 0.015625 36.613281 L 0.015625 44.234375 L 8.53125 44.234375 Z M 10.058594 44.234375 L 32.886719 44.234375 L 32.886719 36.613281 L 10.058594 36.613281 Z M 46.742188 53.386719 L 69.570312 53.386719 L 69.570312 45.765625 L 46.742188 45.765625 Z M 71.09375 53.386719 L 91.484375 53.386719 L 91.484375 45.765625 L 71.09375 45.765625 Z M 20.863281 45.765625 L 0.015625 45.765625 L 0.015625 53.386719 L 20.863281 53.386719 Z M 45.214844 45.765625 L 22.386719 45.765625 L 22.386719 53.386719 L 45.214844 53.386719 Z M 34.5625 62.554688 L 57.394531 62.554688 L 57.394531 54.933594 L 34.5625 54.933594 Z M 81.746094 54.914062 L 58.917969 54.914062 L 58.917969 62.535156 L 81.746094 62.535156 Z M 83.273438 62.554688 L 91.484375 62.554688 L 91.484375 54.933594 L 83.273438 54.933594 Z M 8.53125 54.914062 L 0.015625 54.914062 L 0.015625 62.535156 L 8.53125 62.535156 Z M 10.058594 62.554688 L 32.886719 62.554688 L 32.886719 54.933594 L 10.058594 54.933594 Z M 46.742188 71.703125 L 69.570312 71.703125 L 69.570312 64.082031 L 46.742188 64.082031 Z M 71.09375 71.703125 L 91.484375 71.703125 L 91.484375 64.082031 L 71.09375 64.082031 Z M 20.863281 64.0625 L 0.015625 64.0625 L 0.015625 71.683594 L 20.863281 71.683594 Z M 45.214844 64.0625 L 22.386719 64.0625 L 22.386719 71.683594 L 45.214844 71.683594 Z M 57.242188 73.230469 L 34.410156 73.230469 L 34.410156 80.851562 L 57.242188 80.851562 Z M 58.765625 80.851562 L 81.59375 80.851562 L 81.59375 73.230469 L 58.765625 73.230469 Z M 83.121094 80.851562 L 91.484375 80.851562 L 91.484375 73.230469 L 83.121094 73.230469 Z M 8.378906 73.230469 L 0.015625 73.230469 L 0.015625 80.851562 L 8.378906 80.851562 Z M 9.90625 80.851562 L 32.734375 80.851562 L 32.734375 73.230469 L 9.90625 73.230469 Z M 46.589844 90 L 69.417969 90 L 69.417969 82.378906 L 46.589844 82.378906 Z M 70.941406 90 L 91.484375 90 L 91.484375 82.378906 L 70.941406 82.378906 Z M 0.015625 90 L 20.710938 90 L 20.710938 82.378906 L 0.015625 82.378906 Z M 22.234375 90 L 45.0625 90 L 45.0625 82.378906 L 22.234375 82.378906 Z M 22.234375 90 " fill-opacity="1" fill-rule="nonzero"/></g><g clip-path="url(#b3f4dcfb5f)"><path fill="#ff5c00" d="M 144.722656 7.621094 L 121.894531 7.621094 L 121.894531 0 L 144.722656 0 Z M 169.074219 0 L 146.246094 0 L 146.246094 7.621094 L 169.074219 7.621094 Z M 170.601562 0 L 170.601562 7.621094 L 178.964844 7.621094 L 178.964844 0 Z M 95.863281 0 L 87.496094 0 L 87.496094 7.621094 L 95.863281 7.621094 Z M 120.214844 0 L 97.386719 0 L 97.386719 7.621094 L 120.214844 7.621094 Z M 134.070312 16.789062 L 156.898438 16.789062 L 156.898438 9.148438 L 134.070312 9.148438 Z M 158.421875 16.789062 L 178.964844 16.789062 L 178.964844 9.148438 L 158.421875 9.148438 Z M 108.191406 9.148438 L 87.496094 9.148438 L 87.496094 16.769531 L 108.191406 16.769531 Z M 109.714844 16.789062 L 132.546875 16.789062 L 132.546875 9.148438 L 109.714844 9.148438 Z M 121.894531 25.9375 L 144.722656 25.9375 L 144.722656 18.296875 L 121.894531 18.296875 Z M 169.074219 18.296875 L 146.246094 18.296875 L 146.246094 25.917969 L 169.074219 25.917969 Z M 170.601562 25.9375 L 178.964844 25.9375 L 178.964844 18.296875 L 170.601562 18.296875 Z M 95.863281 18.296875 L 87.496094 18.296875 L 87.496094 25.917969 L 95.863281 25.917969 Z M 97.386719 25.9375 L 120.214844 25.9375 L 120.214844 18.296875 L 97.386719 18.296875 Z M 134.070312 35.085938 L 156.898438 35.085938 L 156.898438 27.464844 L 134.070312 27.464844 Z M 158.421875 35.085938 L 178.964844 35.085938 L 178.964844 27.464844 L 158.421875 27.464844 Z M 108.191406 27.464844 L 87.496094 27.464844 L 87.496094 35.085938 L 108.191406 35.085938 Z M 132.546875 27.464844 L 109.714844 27.464844 L 109.714844 35.085938 L 132.546875 35.085938 Z M 122.046875 44.234375 L 144.875 44.234375 L 144.875 36.613281 L 122.046875 36.613281 Z M 169.230469 36.613281 L 146.398438 36.613281 L 146.398438 44.234375 L 169.230469 44.234375 Z M 170.753906 44.234375 L 178.964844 44.234375 L 178.964844 36.613281 L 170.753906 36.613281 Z M 96.015625 36.613281 L 87.496094 36.613281 L 87.496094 44.234375 L 96.015625 44.234375 Z M 97.539062 44.234375 L 120.367188 44.234375 L 120.367188 36.613281 L 97.539062 36.613281 Z M 134.222656 53.386719 L 157.050781 53.386719 L 157.050781 45.765625 L 134.222656 45.765625 Z M 158.574219 53.386719 L 178.964844 53.386719 L 178.964844 45.765625 L 158.574219 45.765625 Z M 108.34375 45.765625 L 87.496094 45.765625 L 87.496094 53.386719 L 108.34375 53.386719 Z M 132.699219 45.765625 L 109.867188 45.765625 L 109.867188 53.386719 L 132.699219 53.386719 Z M 122.046875 62.554688 L 144.875 62.554688 L 144.875 54.933594 L 122.046875 54.933594 Z M 169.230469 54.914062 L 146.398438 54.914062 L 146.398438 62.535156 L 169.230469 62.535156 Z M 170.753906 62.554688 L 178.964844 62.554688 L 178.964844 54.933594 L 170.753906 54.933594 Z M 96.015625 54.914062 L 87.496094 54.914062 L 87.496094 62.535156 L 96.015625 62.535156 Z M 97.539062 62.554688 L 120.367188 62.554688 L 120.367188 54.933594 L 97.539062 54.933594 Z M 134.222656 71.703125 L 157.050781 71.703125 L 157.050781 64.082031 L 134.222656 64.082031 Z M 158.574219 71.703125 L 178.964844 71.703125 L 178.964844 64.082031 L 158.574219 64.082031 Z M 108.34375 64.0625 L 87.496094 64.0625 L 87.496094 71.683594 L 108.34375 71.683594 Z M 132.699219 64.0625 L 109.867188 64.0625 L 109.867188 71.683594 L 132.699219 71.683594 Z M 144.722656 73.230469 L 121.894531 73.230469 L 121.894531 80.851562 L 144.722656 80.851562 Z M 146.246094 80.851562 L 169.074219 80.851562 L 169.074219 73.230469 L 146.246094 73.230469 Z M 170.601562 80.851562 L 178.964844 80.851562 L 178.964844 73.230469 L 170.601562 73.230469 Z M 95.863281 73.230469 L 87.496094 73.230469 L 87.496094 80.851562 L 95.863281 80.851562 Z M 97.386719 80.851562 L 120.214844 80.851562 L 120.214844 73.230469 L 97.386719 73.230469 Z M 134.070312 90 L 156.898438 90 L 156.898438 82.378906 L 134.070312 82.378906 Z M 158.421875 90 L 178.964844 90 L 178.964844 82.378906 L 158.421875 82.378906 Z M 87.496094 90 L 108.191406 90 L 108.191406 82.378906 L 87.496094 82.378906 Z M 109.714844 90 L 132.546875 90 L 132.546875 82.378906 L 109.714844 82.378906 Z M 109.714844 90 " fill-opacity="1" fill-rule="nonzero"/></g><g clip-path="url(#b28bd4c6cc)"><path fill="#ff5c00" d="M 232.203125 7.621094 L 209.375 7.621094 L 209.375 0 L 232.203125 0 Z M 256.558594 0 L 233.726562 0 L 233.726562 7.621094 L 256.558594 7.621094 Z M 258.082031 0 L 258.082031 7.621094 L 266.449219 7.621094 L 266.449219 0 Z M 183.34375 0 L 174.976562 0 L 174.976562 7.621094 L 183.34375 7.621094 Z M 207.695312 0 L 184.867188 0 L 184.867188 7.621094 L 207.695312 7.621094 Z M 221.550781 16.789062 L 244.378906 16.789062 L 244.378906 9.148438 L 221.550781 9.148438 Z M 245.90625 16.789062 L 266.449219 16.789062 L 266.449219 9.148438 L 245.90625 9.148438 Z M 195.671875 9.148438 L 174.976562 9.148438 L 174.976562 16.769531 L 195.671875 16.769531 Z M 197.195312 16.789062 L 220.027344 16.789062 L 220.027344 9.148438 L 197.195312 9.148438 Z M 209.375 25.9375 L 232.203125 25.9375 L 232.203125 18.296875 L 209.375 18.296875 Z M 256.558594 18.296875 L 233.726562 18.296875 L 233.726562 25.917969 L 256.558594 25.917969 Z M 258.082031 25.9375 L 266.449219 25.9375 L 266.449219 18.296875 L 258.082031 18.296875 Z M 183.34375 18.296875 L 174.976562 18.296875 L 174.976562 25.917969 L 183.34375 25.917969 Z M 184.867188 25.9375 L 207.695312 25.9375 L 207.695312 18.296875 L 184.867188 18.296875 Z M 221.550781 35.085938 L 244.378906 35.085938 L 244.378906 27.464844 L 221.550781 27.464844 Z M 245.90625 35.085938 L 266.449219 35.085938 L 266.449219 27.464844 L 245.90625 27.464844 Z M 195.671875 27.464844 L 174.976562 27.464844 L 174.976562 35.085938 L 195.671875 35.085938 Z M 220.027344 27.464844 L 197.195312 27.464844 L 197.195312 35.085938 L 220.027344 35.085938 Z M 209.527344 44.234375 L 232.355469 44.234375 L 232.355469 36.613281 L 209.527344 36.613281 Z M 256.710938 36.613281 L 233.878906 36.613281 L 233.878906 44.234375 L 256.710938 44.234375 Z M 258.234375 44.234375 L 266.449219 44.234375 L 266.449219 36.613281 L 258.234375 36.613281 Z M 183.496094 36.613281 L 174.976562 36.613281 L 174.976562 44.234375 L 183.496094 44.234375 Z M 185.019531 44.234375 L 207.851562 44.234375 L 207.851562 36.613281 L 185.019531 36.613281 Z M 221.703125 53.386719 L 244.53125 53.386719 L 244.53125 45.765625 L 221.703125 45.765625 Z M 246.058594 53.386719 L 266.449219 53.386719 L 266.449219 45.765625 L 246.058594 45.765625 Z M 195.824219 45.765625 L 174.976562 45.765625 L 174.976562 53.386719 L 195.824219 53.386719 Z M 220.179688 45.765625 L 197.351562 45.765625 L 197.351562 53.386719 L 220.179688 53.386719 Z M 209.527344 62.554688 L 232.355469 62.554688 L 232.355469 54.933594 L 209.527344 54.933594 Z M 256.710938 54.914062 L 233.878906 54.914062 L 233.878906 62.535156 L 256.710938 62.535156 Z M 258.234375 62.554688 L 266.449219 62.554688 L 266.449219 54.933594 L 258.234375 54.933594 Z M 183.496094 54.914062 L 174.976562 54.914062 L 174.976562 62.535156 L 183.496094 62.535156 Z M 185.019531 62.554688 L 207.851562 62.554688 L 207.851562 54.933594 L 185.019531 54.933594 Z M 221.703125 71.703125 L 244.53125 71.703125 L 244.53125 64.082031 L 221.703125 64.082031 Z M 246.058594 71.703125 L 266.449219 71.703125 L 266.449219 64.082031 L 246.058594 64.082031 Z M 195.824219 64.0625 L 174.976562 64.0625 L 174.976562 71.683594 L 195.824219 71.683594 Z M 220.179688 64.0625 L 197.351562 64.0625 L 197.351562 71.683594 L 220.179688 71.683594 Z M 232.203125 73.230469 L 209.375 73.230469 L 209.375 80.851562 L 232.203125 80.851562 Z M 233.726562 80.851562 L 256.558594 80.851562 L 256.558594 73.230469 L 233.726562 73.230469 Z M 258.082031 80.851562 L 266.449219 80.851562 L 266.449219 73.230469 L 258.082031 73.230469 Z M 183.34375 73.230469 L 174.976562 73.230469 L 174.976562 80.851562 L 183.34375 80.851562 Z M 184.867188 80.851562 L 207.695312 80.851562 L 207.695312 73.230469 L 184.867188 73.230469 Z M 221.550781 90 L 244.378906 90 L 244.378906 82.378906 L 221.550781 82.378906 Z M 245.90625 90 L 266.449219 90 L 266.449219 82.378906 L 245.90625 82.378906 Z M 174.976562 90 L 195.671875 90 L 195.671875 82.378906 L 174.976562 82.378906 Z M 197.195312 90 L 220.027344 90 L 220.027344 82.378906 L 197.195312 82.378906 Z M 197.195312 90 " fill-opacity="1" fill-rule="nonzero"/></g><g clip-path="url(#166cb29cac)"><path fill="#ff5c00" d="M 318.273438 7.621094 L 295.441406 7.621094 L 295.441406 0 L 318.273438 0 Z M 342.625 0 L 319.796875 0 L 319.796875 7.621094 L 342.625 7.621094 Z M 344.152344 0 L 344.152344 7.621094 L 352.515625 7.621094 L 352.515625 0 Z M 269.410156 0 L 261.046875 0 L 261.046875 7.621094 L 269.410156 7.621094 Z M 293.765625 0 L 270.9375 0 L 270.9375 7.621094 L 293.765625 7.621094 Z M 307.621094 16.789062 L 330.449219 16.789062 L 330.449219 9.148438 L 307.621094 9.148438 Z M 331.972656 16.789062 L 352.515625 16.789062 L 352.515625 9.148438 L 331.972656 9.148438 Z M 281.742188 9.148438 L 261.046875 9.148438 L 261.046875 16.769531 L 281.742188 16.769531 Z M 283.265625 16.789062 L 306.09375 16.789062 L 306.09375 9.148438 L 283.265625 9.148438 Z M 295.441406 25.9375 L 318.273438 25.9375 L 318.273438 18.296875 L 295.441406 18.296875 Z M 342.625 18.296875 L 319.796875 18.296875 L 319.796875 25.917969 L 342.625 25.917969 Z M 344.152344 25.9375 L 352.515625 25.9375 L 352.515625 18.296875 L 344.152344 18.296875 Z M 269.410156 18.296875 L 261.046875 18.296875 L 261.046875 25.917969 L 269.410156 25.917969 Z M 270.9375 25.9375 L 293.765625 25.9375 L 293.765625 18.296875 L 270.9375 18.296875 Z M 307.621094 35.085938 L 330.449219 35.085938 L 330.449219 27.464844 L 307.621094 27.464844 Z M 331.972656 35.085938 L 352.515625 35.085938 L 352.515625 27.464844 L 331.972656 27.464844 Z M 281.742188 27.464844 L 261.046875 27.464844 L 261.046875 35.085938 L 281.742188 35.085938 Z M 306.09375 27.464844 L 283.265625 27.464844 L 283.265625 35.085938 L 306.09375 35.085938 Z M 295.59375 44.234375 L 318.425781 44.234375 L 318.425781 36.613281 L 295.59375 36.613281 Z M 342.777344 36.613281 L 319.949219 36.613281 L 319.949219 44.234375 L 342.777344 44.234375 Z M 344.304688 44.234375 L 352.515625 44.234375 L 352.515625 36.613281 L 344.304688 36.613281 Z M 269.5625 36.613281 L 261.046875 36.613281 L 261.046875 44.234375 L 269.5625 44.234375 Z M 271.089844 44.234375 L 293.917969 44.234375 L 293.917969 36.613281 L 271.089844 36.613281 Z M 307.773438 53.386719 L 330.601562 53.386719 L 330.601562 45.765625 L 307.773438 45.765625 Z M 332.125 53.386719 L 352.515625 53.386719 L 352.515625 45.765625 L 332.125 45.765625 Z M 281.894531 45.765625 L 261.046875 45.765625 L 261.046875 53.386719 L 281.894531 53.386719 Z M 306.246094 45.765625 L 283.417969 45.765625 L 283.417969 53.386719 L 306.246094 53.386719 Z M 295.59375 62.554688 L 318.425781 62.554688 L 318.425781 54.933594 L 295.59375 54.933594 Z M 342.777344 54.914062 L 319.949219 54.914062 L 319.949219 62.535156 L 342.777344 62.535156 Z M 344.304688 62.554688 L 352.515625 62.554688 L 352.515625 54.933594 L 344.304688 54.933594 Z M 269.5625 54.914062 L 261.046875 54.914062 L 261.046875 62.535156 L 269.5625 62.535156 Z M 271.089844 62.554688 L 293.917969 62.554688 L 293.917969 54.933594 L 271.089844 54.933594 Z M 307.773438 71.703125 L 330.601562 71.703125 L 330.601562 64.082031 L 307.773438 64.082031 Z M 332.125 71.703125 L 352.515625 71.703125 L 352.515625 64.082031 L 332.125 64.082031 Z M 281.894531 64.0625 L 261.046875 64.0625 L 261.046875 71.683594 L 281.894531 71.683594 Z M 306.246094 64.0625 L 283.417969 64.0625 L 283.417969 71.683594 L 306.246094 71.683594 Z M 318.273438 73.230469 L 295.441406 73.230469 L 295.441406 80.851562 L 318.273438 80.851562 Z M 319.796875 80.851562 L 342.625 80.851562 L 342.625 73.230469 L 319.796875 73.230469 Z M 344.152344 80.851562 L 352.515625 80.851562 L 352.515625 73.230469 L 344.152344 73.230469 Z M 269.410156 73.230469 L 261.046875 73.230469 L 261.046875 80.851562 L 269.410156 80.851562 Z M 270.9375 80.851562 L 293.765625 80.851562 L 293.765625 73.230469 L 270.9375 73.230469 Z M 307.621094 90 L 330.449219 90 L 330.449219 82.378906 L 307.621094 82.378906 Z M 331.972656 90 L 352.515625 90 L 352.515625 82.378906 L 331.972656 82.378906 Z M 261.046875 90 L 281.742188 90 L 281.742188 82.378906 L 261.046875 82.378906 Z M 283.265625 90 L 306.09375 90 L 306.09375 82.378906 L 283.265625 82.378906 Z M 283.265625 90 " fill-opacity="1" fill-rule="nonzero"/></g><g clip-path="url(#58c809a56f)"><path fill="#ff5c00" d="M 405.753906 7.621094 L 382.925781 7.621094 L 382.925781 0 L 405.753906 0 Z M 430.105469 0 L 407.277344 0 L 407.277344 7.621094 L 430.105469 7.621094 Z M 431.632812 0 L 431.632812 7.621094 L 439.996094 7.621094 L 439.996094 0 Z M 356.894531 0 L 348.527344 0 L 348.527344 7.621094 L 356.894531 7.621094 Z M 381.246094 0 L 358.417969 0 L 358.417969 7.621094 L 381.246094 7.621094 Z M 395.101562 16.789062 L 417.929688 16.789062 L 417.929688 9.148438 L 395.101562 9.148438 Z M 419.453125 16.789062 L 439.996094 16.789062 L 439.996094 9.148438 L 419.453125 9.148438 Z M 369.222656 9.148438 L 348.527344 9.148438 L 348.527344 16.769531 L 369.222656 16.769531 Z M 370.746094 16.789062 L 393.578125 16.789062 L 393.578125 9.148438 L 370.746094 9.148438 Z M 382.925781 25.9375 L 405.753906 25.9375 L 405.753906 18.296875 L 382.925781 18.296875 Z M 430.105469 18.296875 L 407.277344 18.296875 L 407.277344 25.917969 L 430.105469 25.917969 Z M 431.632812 25.9375 L 439.996094 25.9375 L 439.996094 18.296875 L 431.632812 18.296875 Z M 356.894531 18.296875 L 348.527344 18.296875 L 348.527344 25.917969 L 356.894531 25.917969 Z M 358.417969 25.9375 L 381.246094 25.9375 L 381.246094 18.296875 L 358.417969 18.296875 Z M 395.101562 35.085938 L 417.929688 35.085938 L 417.929688 27.464844 L 395.101562 27.464844 Z M 419.453125 35.085938 L 439.996094 35.085938 L 439.996094 27.464844 L 419.453125 27.464844 Z M 369.222656 27.464844 L 348.527344 27.464844 L 348.527344 35.085938 L 369.222656 35.085938 Z M 393.578125 27.464844 L 370.746094 27.464844 L 370.746094 35.085938 L 393.578125 35.085938 Z M 383.078125 44.234375 L 405.90625 44.234375 L 405.90625 36.613281 L 383.078125 36.613281 Z M 430.261719 36.613281 L 407.429688 36.613281 L 407.429688 44.234375 L 430.261719 44.234375 Z M 431.785156 44.234375 L 439.996094 44.234375 L 439.996094 36.613281 L 431.785156 36.613281 Z M 357.046875 36.613281 L 348.527344 36.613281 L 348.527344 44.234375 L 357.046875 44.234375 Z M 358.570312 44.234375 L 381.398438 44.234375 L 381.398438 36.613281 L 358.570312 36.613281 Z M 395.253906 53.386719 L 418.082031 53.386719 L 418.082031 45.765625 L 395.253906 45.765625 Z M 419.605469 53.386719 L 439.996094 53.386719 L 439.996094 45.765625 L 419.605469 45.765625 Z M 369.375 45.765625 L 348.527344 45.765625 L 348.527344 53.386719 L 369.375 53.386719 Z M 393.730469 45.765625 L 370.898438 45.765625 L 370.898438 53.386719 L 393.730469 53.386719 Z M 383.078125 62.554688 L 405.90625 62.554688 L 405.90625 54.933594 L 383.078125 54.933594 Z M 430.261719 54.914062 L 407.429688 54.914062 L 407.429688 62.535156 L 430.261719 62.535156 Z M 431.785156 62.554688 L 439.996094 62.554688 L 439.996094 54.933594 L 431.785156 54.933594 Z M 357.046875 54.914062 L 348.527344 54.914062 L 348.527344 62.535156 L 357.046875 62.535156 Z M 358.570312 62.554688 L 381.398438 62.554688 L 381.398438 54.933594 L 358.570312 54.933594 Z M 395.253906 71.703125 L 418.082031 71.703125 L 418.082031 64.082031 L 395.253906 64.082031 Z M 419.605469 71.703125 L 439.996094 71.703125 L 439.996094 64.082031 L 419.605469 64.082031 Z M 369.375 64.0625 L 348.527344 64.0625 L 348.527344 71.683594 L 369.375 71.683594 Z M 393.730469 64.0625 L 370.898438 64.0625 L 370.898438 71.683594 L 393.730469 71.683594 Z M 405.753906 73.230469 L 382.925781 73.230469 L 382.925781 80.851562 L 405.753906 80.851562 Z M 407.277344 80.851562 L 430.105469 80.851562 L 430.105469 73.230469 L 407.277344 73.230469 Z M 431.632812 80.851562 L 439.996094 80.851562 L 439.996094 73.230469 L 431.632812 73.230469 Z M 356.894531 73.230469 L 348.527344 73.230469 L 348.527344 80.851562 L 356.894531 80.851562 Z M 358.417969 80.851562 L 381.246094 80.851562 L 381.246094 73.230469 L 358.417969 73.230469 Z M 395.101562 90 L 417.929688 90 L 417.929688 82.378906 L 395.101562 82.378906 Z M 419.453125 90 L 439.996094 90 L 439.996094 82.378906 L 419.453125 82.378906 Z M 348.527344 90 L 369.222656 90 L 369.222656 82.378906 L 348.527344 82.378906 Z M 370.746094 90 L 393.578125 90 L 393.578125 82.378906 L 370.746094 82.378906 Z M 370.746094 90 " fill-opacity="1" fill-rule="nonzero"/></g><g clip-path="url(#43a3b06219)"><path fill="#ff5c00" d="M 493.234375 7.621094 L 470.40625 7.621094 L 470.40625 0 L 493.234375 0 Z M 517.589844 0 L 494.757812 0 L 494.757812 7.621094 L 517.589844 7.621094 Z M 519.113281 0 L 519.113281 7.621094 L 527.480469 7.621094 L 527.480469 0 Z M 444.375 0 L 436.007812 0 L 436.007812 7.621094 L 444.375 7.621094 Z M 468.726562 0 L 445.898438 0 L 445.898438 7.621094 L 468.726562 7.621094 Z M 482.582031 16.789062 L 505.410156 16.789062 L 505.410156 9.148438 L 482.582031 9.148438 Z M 506.9375 16.789062 L 527.480469 16.789062 L 527.480469 9.148438 L 506.9375 9.148438 Z M 456.703125 9.148438 L 436.007812 9.148438 L 436.007812 16.769531 L 456.703125 16.769531 Z M 458.226562 16.789062 L 481.058594 16.789062 L 481.058594 9.148438 L 458.226562 9.148438 Z M 470.40625 25.9375 L 493.234375 25.9375 L 493.234375 18.296875 L 470.40625 18.296875 Z M 517.589844 18.296875 L 494.757812 18.296875 L 494.757812 25.917969 L 517.589844 25.917969 Z M 519.113281 25.9375 L 527.480469 25.9375 L 527.480469 18.296875 L 519.113281 18.296875 Z M 444.375 18.296875 L 436.007812 18.296875 L 436.007812 25.917969 L 444.375 25.917969 Z M 445.898438 25.9375 L 468.726562 25.9375 L 468.726562 18.296875 L 445.898438 18.296875 Z M 482.582031 35.085938 L 505.410156 35.085938 L 505.410156 27.464844 L 482.582031 27.464844 Z M 506.9375 35.085938 L 527.480469 35.085938 L 527.480469 27.464844 L 506.9375 27.464844 Z M 456.703125 27.464844 L 436.007812 27.464844 L 436.007812 35.085938 L 456.703125 35.085938 Z M 481.058594 27.464844 L 458.226562 27.464844 L 458.226562 35.085938 L 481.058594 35.085938 Z M 470.558594 44.234375 L 493.386719 44.234375 L 493.386719 36.613281 L 470.558594 36.613281 Z M 517.742188 36.613281 L 494.910156 36.613281 L 494.910156 44.234375 L 517.742188 44.234375 Z M 519.265625 44.234375 L 527.480469 44.234375 L 527.480469 36.613281 L 519.265625 36.613281 Z M 444.527344 36.613281 L 436.007812 36.613281 L 436.007812 44.234375 L 444.527344 44.234375 Z M 446.050781 44.234375 L 468.878906 44.234375 L 468.878906 36.613281 L 446.050781 36.613281 Z M 482.734375 53.386719 L 505.5625 53.386719 L 505.5625 45.765625 L 482.734375 45.765625 Z M 507.089844 53.386719 L 527.480469 53.386719 L 527.480469 45.765625 L 507.089844 45.765625 Z M 456.855469 45.765625 L 436.007812 45.765625 L 436.007812 53.386719 L 456.855469 53.386719 Z M 481.210938 45.765625 L 458.382812 45.765625 L 458.382812 53.386719 L 481.210938 53.386719 Z M 470.558594 62.554688 L 493.386719 62.554688 L 493.386719 54.933594 L 470.558594 54.933594 Z M 517.742188 54.914062 L 494.910156 54.914062 L 494.910156 62.535156 L 517.742188 62.535156 Z M 519.265625 62.554688 L 527.480469 62.554688 L 527.480469 54.933594 L 519.265625 54.933594 Z M 444.527344 54.914062 L 436.007812 54.914062 L 436.007812 62.535156 L 444.527344 62.535156 Z M 446.050781 62.554688 L 468.878906 62.554688 L 468.878906 54.933594 L 446.050781 54.933594 Z M 482.734375 71.703125 L 505.5625 71.703125 L 505.5625 64.082031 L 482.734375 64.082031 Z M 507.089844 71.703125 L 527.480469 71.703125 L 527.480469 64.082031 L 507.089844 64.082031 Z M 456.855469 64.0625 L 436.007812 64.0625 L 436.007812 71.683594 L 456.855469 71.683594 Z M 481.210938 64.0625 L 458.382812 64.0625 L 458.382812 71.683594 L 481.210938 71.683594 Z M 493.234375 73.230469 L 470.40625 73.230469 L 470.40625 80.851562 L 493.234375 80.851562 Z M 494.757812 80.851562 L 517.589844 80.851562 L 517.589844 73.230469 L 494.757812 73.230469 Z M 519.113281 80.851562 L 527.480469 80.851562 L 527.480469 73.230469 L 519.113281 73.230469 Z M 444.375 73.230469 L 436.007812 73.230469 L 436.007812 80.851562 L 444.375 80.851562 Z M 445.898438 80.851562 L 468.726562 80.851562 L 468.726562 73.230469 L 445.898438 73.230469 Z M 482.582031 90 L 505.410156 90 L 505.410156 82.378906 L 482.582031 82.378906 Z M 506.9375 90 L 527.480469 90 L 527.480469 82.378906 L 506.9375 82.378906 Z M 436.007812 90 L 456.703125 90 L 456.703125 82.378906 L 436.007812 82.378906 Z M 458.226562 90 L 481.058594 90 L 481.058594 82.378906 L 458.226562 82.378906 Z M 458.226562 90 " fill-opacity="1" fill-rule="nonzero"/></g><g clip-path="url(#0c4a96ee71)"><path fill="#ff5c00" d="M 580.007812 7.621094 L 557.179688 7.621094 L 557.179688 0 L 580.007812 0 Z M 604.363281 0 L 581.535156 0 L 581.535156 7.621094 L 604.363281 7.621094 Z M 605.886719 0 L 605.886719 7.621094 L 614.253906 7.621094 L 614.253906 0 Z M 531.148438 0 L 522.785156 0 L 522.785156 7.621094 L 531.148438 7.621094 Z M 555.503906 0 L 532.675781 0 L 532.675781 7.621094 L 555.503906 7.621094 Z M 569.355469 16.789062 L 592.1875 16.789062 L 592.1875 9.148438 L 569.355469 9.148438 Z M 593.710938 16.789062 L 614.253906 16.789062 L 614.253906 9.148438 L 593.710938 9.148438 Z M 543.480469 9.148438 L 522.785156 9.148438 L 522.785156 16.769531 L 543.480469 16.769531 Z M 545.003906 16.789062 L 567.832031 16.789062 L 567.832031 9.148438 L 545.003906 9.148438 Z M 557.179688 25.9375 L 580.007812 25.9375 L 580.007812 18.296875 L 557.179688 18.296875 Z M 604.363281 18.296875 L 581.535156 18.296875 L 581.535156 25.917969 L 604.363281 25.917969 Z M 605.886719 25.9375 L 614.253906 25.9375 L 614.253906 18.296875 L 605.886719 18.296875 Z M 531.148438 18.296875 L 522.785156 18.296875 L 522.785156 25.917969 L 531.148438 25.917969 Z M 532.675781 25.9375 L 555.503906 25.9375 L 555.503906 18.296875 L 532.675781 18.296875 Z M 569.355469 35.085938 L 592.1875 35.085938 L 592.1875 27.464844 L 569.355469 27.464844 Z M 593.710938 35.085938 L 614.253906 35.085938 L 614.253906 27.464844 L 593.710938 27.464844 Z M 543.480469 27.464844 L 522.785156 27.464844 L 522.785156 35.085938 L 543.480469 35.085938 Z M 567.832031 27.464844 L 545.003906 27.464844 L 545.003906 35.085938 L 567.832031 35.085938 Z M 557.332031 44.234375 L 580.164062 44.234375 L 580.164062 36.613281 L 557.332031 36.613281 Z M 604.515625 36.613281 L 581.6875 36.613281 L 581.6875 44.234375 L 604.515625 44.234375 Z M 606.039062 44.234375 L 614.253906 44.234375 L 614.253906 36.613281 L 606.039062 36.613281 Z M 531.300781 36.613281 L 522.785156 36.613281 L 522.785156 44.234375 L 531.300781 44.234375 Z M 532.828125 44.234375 L 555.65625 44.234375 L 555.65625 36.613281 L 532.828125 36.613281 Z M 569.507812 53.386719 L 592.339844 53.386719 L 592.339844 45.765625 L 569.507812 45.765625 Z M 593.863281 53.386719 L 614.253906 53.386719 L 614.253906 45.765625 L 593.863281 45.765625 Z M 543.632812 45.765625 L 522.785156 45.765625 L 522.785156 53.386719 L 543.632812 53.386719 Z M 567.984375 45.765625 L 545.15625 45.765625 L 545.15625 53.386719 L 567.984375 53.386719 Z M 557.332031 62.554688 L 580.164062 62.554688 L 580.164062 54.933594 L 557.332031 54.933594 Z M 604.515625 54.914062 L 581.6875 54.914062 L 581.6875 62.535156 L 604.515625 62.535156 Z M 606.039062 62.554688 L 614.253906 62.554688 L 614.253906 54.933594 L 606.039062 54.933594 Z M 531.300781 54.914062 L 522.785156 54.914062 L 522.785156 62.535156 L 531.300781 62.535156 Z M 532.828125 62.554688 L 555.65625 62.554688 L 555.65625 54.933594 L 532.828125 54.933594 Z M 569.507812 71.703125 L 592.339844 71.703125 L 592.339844 64.082031 L 569.507812 64.082031 Z M 593.863281 71.703125 L 614.253906 71.703125 L 614.253906 64.082031 L 593.863281 64.082031 Z M 543.632812 64.0625 L 522.785156 64.0625 L 522.785156 71.683594 L 543.632812 71.683594 Z M 567.984375 64.0625 L 545.15625 64.0625 L 545.15625 71.683594 L 567.984375 71.683594 Z M 580.007812 73.230469 L 557.179688 73.230469 L 557.179688 80.851562 L 580.007812 80.851562 Z M 581.535156 80.851562 L 604.363281 80.851562 L 604.363281 73.230469 L 581.535156 73.230469 Z M 605.886719 80.851562 L 614.253906 80.851562 L 614.253906 73.230469 L 605.886719 73.230469 Z M 531.148438 73.230469 L 522.785156 73.230469 L 522.785156 80.851562 L 531.148438 80.851562 Z M 532.675781 80.851562 L 555.503906 80.851562 L 555.503906 73.230469 L 532.675781 73.230469 Z M 569.355469 90 L 592.1875 90 L 592.1875 82.378906 L 569.355469 82.378906 Z M 593.710938 90 L 614.253906 90 L 614.253906 82.378906 L 593.710938 82.378906 Z M 522.785156 90 L 543.480469 90 L 543.480469 82.378906 L 522.785156 82.378906 Z M 545.003906 90 L 567.832031 90 L 567.832031 82.378906 L 545.003906 82.378906 Z M 545.003906 90 " fill-opacity="1" fill-rule="nonzero"/></g><g clip-path="url(#51de94e87e)"><path fill="#ff5c00" d="M 667.492188 7.621094 L 644.660156 7.621094 L 644.660156 0 L 667.492188 0 Z M 691.84375 0 L 669.015625 0 L 669.015625 7.621094 L 691.84375 7.621094 Z M 693.371094 0 L 693.371094 7.621094 L 701.734375 7.621094 L 701.734375 0 Z M 618.628906 0 L 610.265625 0 L 610.265625 7.621094 L 618.628906 7.621094 Z M 642.984375 0 L 620.15625 0 L 620.15625 7.621094 L 642.984375 7.621094 Z M 656.839844 16.789062 L 679.667969 16.789062 L 679.667969 9.148438 L 656.839844 9.148438 Z M 681.191406 16.789062 L 701.734375 16.789062 L 701.734375 9.148438 L 681.191406 9.148438 Z M 630.960938 9.148438 L 610.265625 9.148438 L 610.265625 16.769531 L 630.960938 16.769531 Z M 632.484375 16.789062 L 655.3125 16.789062 L 655.3125 9.148438 L 632.484375 9.148438 Z M 644.660156 25.9375 L 667.492188 25.9375 L 667.492188 18.296875 L 644.660156 18.296875 Z M 691.84375 18.296875 L 669.015625 18.296875 L 669.015625 25.917969 L 691.84375 25.917969 Z M 693.371094 25.9375 L 701.734375 25.9375 L 701.734375 18.296875 L 693.371094 18.296875 Z M 618.628906 18.296875 L 610.265625 18.296875 L 610.265625 25.917969 L 618.628906 25.917969 Z M 620.15625 25.9375 L 642.984375 25.9375 L 642.984375 18.296875 L 620.15625 18.296875 Z M 656.839844 35.085938 L 679.667969 35.085938 L 679.667969 27.464844 L 656.839844 27.464844 Z M 681.191406 35.085938 L 701.734375 35.085938 L 701.734375 27.464844 L 681.191406 27.464844 Z M 630.960938 27.464844 L 610.265625 27.464844 L 610.265625 35.085938 L 630.960938 35.085938 Z M 655.3125 27.464844 L 632.484375 27.464844 L 632.484375 35.085938 L 655.3125 35.085938 Z M 644.8125 44.234375 L 667.644531 44.234375 L 667.644531 36.613281 L 644.8125 36.613281 Z M 691.996094 36.613281 L 669.167969 36.613281 L 669.167969 44.234375 L 691.996094 44.234375 Z M 693.523438 44.234375 L 701.734375 44.234375 L 701.734375 36.613281 L 693.523438 36.613281 Z M 618.785156 36.613281 L 610.265625 36.613281 L 610.265625 44.234375 L 618.785156 44.234375 Z M 620.308594 44.234375 L 643.136719 44.234375 L 643.136719 36.613281 L 620.308594 36.613281 Z M 656.992188 53.386719 L 679.820312 53.386719 L 679.820312 45.765625 L 656.992188 45.765625 Z M 681.34375 53.386719 L 701.734375 53.386719 L 701.734375 45.765625 L 681.34375 45.765625 Z M 631.113281 45.765625 L 610.265625 45.765625 L 610.265625 53.386719 L 631.113281 53.386719 Z M 655.464844 45.765625 L 632.636719 45.765625 L 632.636719 53.386719 L 655.464844 53.386719 Z M 644.8125 62.554688 L 667.644531 62.554688 L 667.644531 54.933594 L 644.8125 54.933594 Z M 691.996094 54.914062 L 669.167969 54.914062 L 669.167969 62.535156 L 691.996094 62.535156 Z M 693.523438 62.554688 L 701.734375 62.554688 L 701.734375 54.933594 L 693.523438 54.933594 Z M 618.785156 54.914062 L 610.265625 54.914062 L 610.265625 62.535156 L 618.785156 62.535156 Z M 620.308594 62.554688 L 643.136719 62.554688 L 643.136719 54.933594 L 620.308594 54.933594 Z M 656.992188 71.703125 L 679.820312 71.703125 L 679.820312 64.082031 L 656.992188 64.082031 Z M 681.34375 71.703125 L 701.734375 71.703125 L 701.734375 64.082031 L 681.34375 64.082031 Z M 631.113281 64.0625 L 610.265625 64.0625 L 610.265625 71.683594 L 631.113281 71.683594 Z M 655.464844 64.0625 L 632.636719 64.0625 L 632.636719 71.683594 L 655.464844 71.683594 Z M 667.492188 73.230469 L 644.660156 73.230469 L 644.660156 80.851562 L 667.492188 80.851562 Z M 669.015625 80.851562 L 691.84375 80.851562 L 691.84375 73.230469 L 669.015625 73.230469 Z M 693.371094 80.851562 L 701.734375 80.851562 L 701.734375 73.230469 L 693.371094 73.230469 Z M 618.628906 73.230469 L 610.265625 73.230469 L 610.265625 80.851562 L 618.628906 80.851562 Z M 620.15625 80.851562 L 642.984375 80.851562 L 642.984375 73.230469 L 620.15625 73.230469 Z M 656.839844 90 L 679.667969 90 L 679.667969 82.378906 L 656.839844 82.378906 Z M 681.191406 90 L 701.734375 90 L 701.734375 82.378906 L 681.191406 82.378906 Z M 610.265625 90 L 630.960938 90 L 630.960938 82.378906 L 610.265625 82.378906 Z M 632.484375 90 L 655.3125 90 L 655.3125 82.378906 L 632.484375 82.378906 Z M 632.484375 90 " fill-opacity="1" fill-rule="nonzero"/></g><g clip-path="url(#c03835f375)"><path fill="#ff5c00" d="M 754.972656 7.621094 L 732.144531 7.621094 L 732.144531 0 L 754.972656 0 Z M 779.328125 0 L 756.496094 0 L 756.496094 7.621094 L 779.328125 7.621094 Z M 780.851562 0 L 780.851562 7.621094 L 789.214844 7.621094 L 789.214844 0 Z M 706.113281 0 L 697.746094 0 L 697.746094 7.621094 L 706.113281 7.621094 Z M 730.464844 0 L 707.636719 0 L 707.636719 7.621094 L 730.464844 7.621094 Z M 744.320312 16.789062 L 767.148438 16.789062 L 767.148438 9.148438 L 744.320312 9.148438 Z M 768.671875 16.789062 L 789.214844 16.789062 L 789.214844 9.148438 L 768.671875 9.148438 Z M 718.441406 9.148438 L 697.746094 9.148438 L 697.746094 16.769531 L 718.441406 16.769531 Z M 719.964844 16.789062 L 742.796875 16.789062 L 742.796875 9.148438 L 719.964844 9.148438 Z M 732.144531 25.9375 L 754.972656 25.9375 L 754.972656 18.296875 L 732.144531 18.296875 Z M 779.328125 18.296875 L 756.496094 18.296875 L 756.496094 25.917969 L 779.328125 25.917969 Z M 780.851562 25.9375 L 789.214844 25.9375 L 789.214844 18.296875 L 780.851562 18.296875 Z M 706.113281 18.296875 L 697.746094 18.296875 L 697.746094 25.917969 L 706.113281 25.917969 Z M 707.636719 25.9375 L 730.464844 25.9375 L 730.464844 18.296875 L 707.636719 18.296875 Z M 744.320312 35.085938 L 767.148438 35.085938 L 767.148438 27.464844 L 744.320312 27.464844 Z M 768.671875 35.085938 L 789.214844 35.085938 L 789.214844 27.464844 L 768.671875 27.464844 Z M 718.441406 27.464844 L 697.746094 27.464844 L 697.746094 35.085938 L 718.441406 35.085938 Z M 742.796875 27.464844 L 719.964844 27.464844 L 719.964844 35.085938 L 742.796875 35.085938 Z M 732.296875 44.234375 L 755.125 44.234375 L 755.125 36.613281 L 732.296875 36.613281 Z M 779.480469 36.613281 L 756.648438 36.613281 L 756.648438 44.234375 L 779.480469 44.234375 Z M 781.003906 44.234375 L 789.214844 44.234375 L 789.214844 36.613281 L 781.003906 36.613281 Z M 706.265625 36.613281 L 697.746094 36.613281 L 697.746094 44.234375 L 706.265625 44.234375 Z M 707.789062 44.234375 L 730.617188 44.234375 L 730.617188 36.613281 L 707.789062 36.613281 Z M 744.472656 53.386719 L 767.300781 53.386719 L 767.300781 45.765625 L 744.472656 45.765625 Z M 768.828125 53.386719 L 789.214844 53.386719 L 789.214844 45.765625 L 768.828125 45.765625 Z M 718.59375 45.765625 L 697.746094 45.765625 L 697.746094 53.386719 L 718.59375 53.386719 Z M 742.949219 45.765625 L 720.117188 45.765625 L 720.117188 53.386719 L 742.949219 53.386719 Z M 732.296875 62.554688 L 755.125 62.554688 L 755.125 54.933594 L 732.296875 54.933594 Z M 779.480469 54.914062 L 756.648438 54.914062 L 756.648438 62.535156 L 779.480469 62.535156 Z M 781.003906 62.554688 L 789.214844 62.554688 L 789.214844 54.933594 L 781.003906 54.933594 Z M 706.265625 54.914062 L 697.746094 54.914062 L 697.746094 62.535156 L 706.265625 62.535156 Z M 707.789062 62.554688 L 730.617188 62.554688 L 730.617188 54.933594 L 707.789062 54.933594 Z M 744.472656 71.703125 L 767.300781 71.703125 L 767.300781 64.082031 L 744.472656 64.082031 Z M 768.828125 71.703125 L 789.214844 71.703125 L 789.214844 64.082031 L 768.828125 64.082031 Z M 718.59375 64.0625 L 697.746094 64.0625 L 697.746094 71.683594 L 718.59375 71.683594 Z M 742.949219 64.0625 L 720.117188 64.0625 L 720.117188 71.683594 L 742.949219 71.683594 Z M 754.972656 73.230469 L 732.144531 73.230469 L 732.144531 80.851562 L 754.972656 80.851562 Z M 756.496094 80.851562 L 779.328125 80.851562 L 779.328125 73.230469 L 756.496094 73.230469 Z M 780.851562 80.851562 L 789.214844 80.851562 L 789.214844 73.230469 L 780.851562 73.230469 Z M 706.113281 73.230469 L 697.746094 73.230469 L 697.746094 80.851562 L 706.113281 80.851562 Z M 707.636719 80.851562 L 730.464844 80.851562 L 730.464844 73.230469 L 707.636719 73.230469 Z M 744.320312 90 L 767.148438 90 L 767.148438 82.378906 L 744.320312 82.378906 Z M 768.671875 90 L 789.214844 90 L 789.214844 82.378906 L 768.671875 82.378906 Z M 697.746094 90 L 718.441406 90 L 718.441406 82.378906 L 697.746094 82.378906 Z M 719.964844 90 L 742.796875 90 L 742.796875 82.378906 L 719.964844 82.378906 Z M 719.964844 90 " fill-opacity="1" fill-rule="nonzero"/></g><g clip-path="url(#3737fdf4d8)"><path fill="#ff5c00" d="M 827.949219 7.621094 L 805.117188 7.621094 L 805.117188 0 L 827.949219 0 Z M 852.300781 0 L 829.472656 0 L 829.472656 7.621094 L 852.300781 7.621094 Z M 853.828125 0 L 853.828125 7.621094 L 862.191406 7.621094 L 862.191406 0 Z M 779.085938 0 L 770.722656 0 L 770.722656 7.621094 L 779.085938 7.621094 Z M 803.441406 0 L 780.613281 0 L 780.613281 7.621094 L 803.441406 7.621094 Z M 817.296875 16.789062 L 840.125 16.789062 L 840.125 9.148438 L 817.296875 9.148438 Z M 841.648438 16.789062 L 862.191406 16.789062 L 862.191406 9.148438 L 841.648438 9.148438 Z M 791.417969 9.148438 L 770.722656 9.148438 L 770.722656 16.769531 L 791.417969 16.769531 Z M 792.941406 16.789062 L 815.769531 16.789062 L 815.769531 9.148438 L 792.941406 9.148438 Z M 805.117188 25.9375 L 827.949219 25.9375 L 827.949219 18.296875 L 805.117188 18.296875 Z M 852.300781 18.296875 L 829.472656 18.296875 L 829.472656 25.917969 L 852.300781 25.917969 Z M 853.828125 25.9375 L 862.191406 25.9375 L 862.191406 18.296875 L 853.828125 18.296875 Z M 779.085938 18.296875 L 770.722656 18.296875 L 770.722656 25.917969 L 779.085938 25.917969 Z M 780.613281 25.9375 L 803.441406 25.9375 L 803.441406 18.296875 L 780.613281 18.296875 Z M 817.296875 35.085938 L 840.125 35.085938 L 840.125 27.464844 L 817.296875 27.464844 Z M 841.648438 35.085938 L 862.191406 35.085938 L 862.191406 27.464844 L 841.648438 27.464844 Z M 791.417969 27.464844 L 770.722656 27.464844 L 770.722656 35.085938 L 791.417969 35.085938 Z M 815.769531 27.464844 L 792.941406 27.464844 L 792.941406 35.085938 L 815.769531 35.085938 Z M 805.269531 44.234375 L 828.101562 44.234375 L 828.101562 36.613281 L 805.269531 36.613281 Z M 852.453125 36.613281 L 829.625 36.613281 L 829.625 44.234375 L 852.453125 44.234375 Z M 853.980469 44.234375 L 862.191406 44.234375 L 862.191406 36.613281 L 853.980469 36.613281 Z M 779.238281 36.613281 L 770.722656 36.613281 L 770.722656 44.234375 L 779.238281 44.234375 Z M 780.765625 44.234375 L 803.59375 44.234375 L 803.59375 36.613281 L 780.765625 36.613281 Z M 817.449219 53.386719 L 840.277344 53.386719 L 840.277344 45.765625 L 817.449219 45.765625 Z M 841.800781 53.386719 L 862.191406 53.386719 L 862.191406 45.765625 L 841.800781 45.765625 Z M 791.570312 45.765625 L 770.722656 45.765625 L 770.722656 53.386719 L 791.570312 53.386719 Z M 815.921875 45.765625 L 793.09375 45.765625 L 793.09375 53.386719 L 815.921875 53.386719 Z M 805.269531 62.554688 L 828.101562 62.554688 L 828.101562 54.933594 L 805.269531 54.933594 Z M 852.453125 54.914062 L 829.625 54.914062 L 829.625 62.535156 L 852.453125 62.535156 Z M 853.980469 62.554688 L 862.191406 62.554688 L 862.191406 54.933594 L 853.980469 54.933594 Z M 779.238281 54.914062 L 770.722656 54.914062 L 770.722656 62.535156 L 779.238281 62.535156 Z M 780.765625 62.554688 L 803.59375 62.554688 L 803.59375 54.933594 L 780.765625 54.933594 Z M 817.449219 71.703125 L 840.277344 71.703125 L 840.277344 64.082031 L 817.449219 64.082031 Z M 841.800781 71.703125 L 862.191406 71.703125 L 862.191406 64.082031 L 841.800781 64.082031 Z M 791.570312 64.0625 L 770.722656 64.0625 L 770.722656 71.683594 L 791.570312 71.683594 Z M 815.921875 64.0625 L 793.09375 64.0625 L 793.09375 71.683594 L 815.921875 71.683594 Z M 827.949219 73.230469 L 805.117188 73.230469 L 805.117188 80.851562 L 827.949219 80.851562 Z M 829.472656 80.851562 L 852.300781 80.851562 L 852.300781 73.230469 L 829.472656 73.230469 Z M 853.828125 80.851562 L 862.191406 80.851562 L 862.191406 73.230469 L 853.828125 73.230469 Z M 779.085938 73.230469 L 770.722656 73.230469 L 770.722656 80.851562 L 779.085938 80.851562 Z M 780.613281 80.851562 L 803.441406 80.851562 L 803.441406 73.230469 L 780.613281 73.230469 Z M 817.296875 90 L 840.125 90 L 840.125 82.378906 L 817.296875 82.378906 Z M 841.648438 90 L 862.191406 90 L 862.191406 82.378906 L 841.648438 82.378906 Z M 770.722656 90 L 791.417969 90 L 791.417969 82.378906 L 770.722656 82.378906 Z M 792.941406 90 L 815.769531 90 L 815.769531 82.378906 L 792.941406 82.378906 Z M 792.941406 90 " fill-opacity="1" fill-rule="nonzero"/></g><g clip-path="url(#8fc164e7ef)"><path fill="#ff5c00" d="M 915.429688 7.621094 L 892.601562 7.621094 L 892.601562 0 L 915.429688 0 Z M 939.78125 0 L 916.953125 0 L 916.953125 7.621094 L 939.78125 7.621094 Z M 941.308594 0 L 941.308594 7.621094 L 949.671875 7.621094 L 949.671875 0 Z M 866.570312 0 L 858.203125 0 L 858.203125 7.621094 L 866.570312 7.621094 Z M 890.921875 0 L 868.09375 0 L 868.09375 7.621094 L 890.921875 7.621094 Z M 904.777344 16.789062 L 927.605469 16.789062 L 927.605469 9.148438 L 904.777344 9.148438 Z M 929.128906 16.789062 L 949.671875 16.789062 L 949.671875 9.148438 L 929.128906 9.148438 Z M 878.898438 9.148438 L 858.203125 9.148438 L 858.203125 16.769531 L 878.898438 16.769531 Z M 880.421875 16.789062 L 903.253906 16.789062 L 903.253906 9.148438 L 880.421875 9.148438 Z M 892.601562 25.9375 L 915.429688 25.9375 L 915.429688 18.296875 L 892.601562 18.296875 Z M 939.78125 18.296875 L 916.953125 18.296875 L 916.953125 25.917969 L 939.78125 25.917969 Z M 941.308594 25.9375 L 949.671875 25.9375 L 949.671875 18.296875 L 941.308594 18.296875 Z M 866.570312 18.296875 L 858.203125 18.296875 L 858.203125 25.917969 L 866.570312 25.917969 Z M 868.09375 25.9375 L 890.921875 25.9375 L 890.921875 18.296875 L 868.09375 18.296875 Z M 904.777344 35.085938 L 927.605469 35.085938 L 927.605469 27.464844 L 904.777344 27.464844 Z M 929.128906 35.085938 L 949.671875 35.085938 L 949.671875 27.464844 L 929.128906 27.464844 Z M 878.898438 27.464844 L 858.203125 27.464844 L 858.203125 35.085938 L 878.898438 35.085938 Z M 903.253906 27.464844 L 880.421875 27.464844 L 880.421875 35.085938 L 903.253906 35.085938 Z M 892.753906 44.234375 L 915.582031 44.234375 L 915.582031 36.613281 L 892.753906 36.613281 Z M 939.933594 36.613281 L 917.105469 36.613281 L 917.105469 44.234375 L 939.933594 44.234375 Z M 941.460938 44.234375 L 949.671875 44.234375 L 949.671875 36.613281 L 941.460938 36.613281 Z M 866.722656 36.613281 L 858.203125 36.613281 L 858.203125 44.234375 L 866.722656 44.234375 Z M 868.246094 44.234375 L 891.074219 44.234375 L 891.074219 36.613281 L 868.246094 36.613281 Z M 904.929688 53.386719 L 927.757812 53.386719 L 927.757812 45.765625 L 904.929688 45.765625 Z M 929.28125 53.386719 L 949.671875 53.386719 L 949.671875 45.765625 L 929.28125 45.765625 Z M 879.050781 45.765625 L 858.203125 45.765625 L 858.203125 53.386719 L 879.050781 53.386719 Z M 903.40625 45.765625 L 880.574219 45.765625 L 880.574219 53.386719 L 903.40625 53.386719 Z M 892.753906 62.554688 L 915.582031 62.554688 L 915.582031 54.933594 L 892.753906 54.933594 Z M 939.933594 54.914062 L 917.105469 54.914062 L 917.105469 62.535156 L 939.933594 62.535156 Z M 941.460938 62.554688 L 949.671875 62.554688 L 949.671875 54.933594 L 941.460938 54.933594 Z M 866.722656 54.914062 L 858.203125 54.914062 L 858.203125 62.535156 L 866.722656 62.535156 Z M 868.246094 62.554688 L 891.074219 62.554688 L 891.074219 54.933594 L 868.246094 54.933594 Z M 904.929688 71.703125 L 927.757812 71.703125 L 927.757812 64.082031 L 904.929688 64.082031 Z M 929.28125 71.703125 L 949.671875 71.703125 L 949.671875 64.082031 L 929.28125 64.082031 Z M 879.050781 64.0625 L 858.203125 64.0625 L 858.203125 71.683594 L 879.050781 71.683594 Z M 903.40625 64.0625 L 880.574219 64.0625 L 880.574219 71.683594 L 903.40625 71.683594 Z M 915.429688 73.230469 L 892.601562 73.230469 L 892.601562 80.851562 L 915.429688 80.851562 Z M 916.953125 80.851562 L 939.78125 80.851562 L 939.78125 73.230469 L 916.953125 73.230469 Z M 941.308594 80.851562 L 949.671875 80.851562 L 949.671875 73.230469 L 941.308594 73.230469 Z M 866.570312 73.230469 L 858.203125 73.230469 L 858.203125 80.851562 L 866.570312 80.851562 Z M 868.09375 80.851562 L 890.921875 80.851562 L 890.921875 73.230469 L 868.09375 73.230469 Z M 904.777344 90 L 927.605469 90 L 927.605469 82.378906 L 904.777344 82.378906 Z M 929.128906 90 L 949.671875 90 L 949.671875 82.378906 L 929.128906 82.378906 Z M 858.203125 90 L 878.898438 90 L 878.898438 82.378906 L 858.203125 82.378906 Z M 880.421875 90 L 903.253906 90 L 903.253906 82.378906 L 880.421875 82.378906 Z M 880.421875 90 " fill-opacity="1" fill-rule="nonzero"/></g><g clip-path="url(#321231efe7)"><path fill="#ff5c00" d="M 1002.910156 7.621094 L 980.082031 7.621094 L 980.082031 0 L 1002.910156 0 Z M 1027.265625 0 L 1004.433594 0 L 1004.433594 7.621094 L 1027.265625 7.621094 Z M 1028.789062 0 L 1028.789062 7.621094 L 1037.15625 7.621094 L 1037.15625 0 Z M 954.050781 0 L 945.683594 0 L 945.683594 7.621094 L 954.050781 7.621094 Z M 978.402344 0 L 955.574219 0 L 955.574219 7.621094 L 978.402344 7.621094 Z M 992.257812 16.789062 L 1015.085938 16.789062 L 1015.085938 9.148438 L 992.257812 9.148438 Z M 1016.613281 16.789062 L 1037.15625 16.789062 L 1037.15625 9.148438 L 1016.613281 9.148438 Z M 966.378906 9.148438 L 945.683594 9.148438 L 945.683594 16.769531 L 966.378906 16.769531 Z M 967.902344 16.789062 L 990.734375 16.789062 L 990.734375 9.148438 L 967.902344 9.148438 Z M 980.082031 25.9375 L 1002.910156 25.9375 L 1002.910156 18.296875 L 980.082031 18.296875 Z M 1027.265625 18.296875 L 1004.433594 18.296875 L 1004.433594 25.917969 L 1027.265625 25.917969 Z M 1028.789062 25.9375 L 1037.15625 25.9375 L 1037.15625 18.296875 L 1028.789062 18.296875 Z M 954.050781 18.296875 L 945.683594 18.296875 L 945.683594 25.917969 L 954.050781 25.917969 Z M 955.574219 25.9375 L 978.402344 25.9375 L 978.402344 18.296875 L 955.574219 18.296875 Z M 992.257812 35.085938 L 1015.085938 35.085938 L 1015.085938 27.464844 L 992.257812 27.464844 Z M 1016.613281 35.085938 L 1037.15625 35.085938 L 1037.15625 27.464844 L 1016.613281 27.464844 Z M 966.378906 27.464844 L 945.683594 27.464844 L 945.683594 35.085938 L 966.378906 35.085938 Z M 990.734375 27.464844 L 967.902344 27.464844 L 967.902344 35.085938 L 990.734375 35.085938 Z M 980.234375 44.234375 L 1003.0625 44.234375 L 1003.0625 36.613281 L 980.234375 36.613281 Z M 1027.417969 36.613281 L 1004.585938 36.613281 L 1004.585938 44.234375 L 1027.417969 44.234375 Z M 1028.941406 44.234375 L 1037.15625 44.234375 L 1037.15625 36.613281 L 1028.941406 36.613281 Z M 954.203125 36.613281 L 945.683594 36.613281 L 945.683594 44.234375 L 954.203125 44.234375 Z M 955.726562 44.234375 L 978.558594 44.234375 L 978.558594 36.613281 L 955.726562 36.613281 Z M 992.410156 53.386719 L 1015.238281 53.386719 L 1015.238281 45.765625 L 992.410156 45.765625 Z M 1016.765625 53.386719 L 1037.15625 53.386719 L 1037.15625 45.765625 L 1016.765625 45.765625 Z M 966.53125 45.765625 L 945.683594 45.765625 L 945.683594 53.386719 L 966.53125 53.386719 Z M 990.886719 45.765625 L 968.058594 45.765625 L 968.058594 53.386719 L 990.886719 53.386719 Z M 980.234375 62.554688 L 1003.0625 62.554688 L 1003.0625 54.933594 L 980.234375 54.933594 Z M 1027.417969 54.914062 L 1004.585938 54.914062 L 1004.585938 62.535156 L 1027.417969 62.535156 Z M 1028.941406 62.554688 L 1037.15625 62.554688 L 1037.15625 54.933594 L 1028.941406 54.933594 Z M 954.203125 54.914062 L 945.683594 54.914062 L 945.683594 62.535156 L 954.203125 62.535156 Z M 955.726562 62.554688 L 978.558594 62.554688 L 978.558594 54.933594 L 955.726562 54.933594 Z M 992.410156 71.703125 L 1015.238281 71.703125 L 1015.238281 64.082031 L 992.410156 64.082031 Z M 1016.765625 71.703125 L 1037.15625 71.703125 L 1037.15625 64.082031 L 1016.765625 64.082031 Z M 966.53125 64.0625 L 945.683594 64.0625 L 945.683594 71.683594 L 966.53125 71.683594 Z M 990.886719 64.0625 L 968.058594 64.0625 L 968.058594 71.683594 L 990.886719 71.683594 Z M 1002.910156 73.230469 L 980.082031 73.230469 L 980.082031 80.851562 L 1002.910156 80.851562 Z M 1004.433594 80.851562 L 1027.265625 80.851562 L 1027.265625 73.230469 L 1004.433594 73.230469 Z M 1028.789062 80.851562 L 1037.15625 80.851562 L 1037.15625 73.230469 L 1028.789062 73.230469 Z M 954.050781 73.230469 L 945.683594 73.230469 L 945.683594 80.851562 L 954.050781 80.851562 Z M 955.574219 80.851562 L 978.402344 80.851562 L 978.402344 73.230469 L 955.574219 73.230469 Z M 992.257812 90 L 1015.085938 90 L 1015.085938 82.378906 L 992.257812 82.378906 Z M 1016.613281 90 L 1037.15625 90 L 1037.15625 82.378906 L 1016.613281 82.378906 Z M 945.683594 90 L 966.378906 90 L 966.378906 82.378906 L 945.683594 82.378906 Z M 967.902344 90 L 990.734375 90 L 990.734375 82.378906 L 967.902344 82.378906 Z M 967.902344 90 " fill-opacity="1" fill-rule="nonzero"/></g></svg>